<?xml version="1.0" encoding="UTF-8"?>
<svg width="1024px" height="453px" viewBox="0 0 1024 453" version="1.1" xmlns="http://www.w3.org/2000/svg" xmlns:xlink="http://www.w3.org/1999/xlink" style="background: #DDE02A;">
    <!-- Generator: Sketch 40.3 (33839) - http://www.bohemiancoding.com/sketch -->
    <title>bg-yellow-full</title>
    <desc>Created with Sketch.</desc>
    <defs></defs>
    <g id="Exports" stroke="none" stroke-width="1" fill="none" fill-rule="evenodd">
        <g id="bg-yellow-full">
            <g id="Group" transform="translate(48.464000, 39.457091)">
                <polygon id="Stroke-1" stroke="#0095CE" stroke-width="15.6479302" stroke-linecap="round" stroke-linejoin="round" points="215.289572 124.296778 287.050375 165.732752 215.289572 207.160767"></polygon>
                <polygon id="Stroke-2" stroke="#0095CE" stroke-width="15.6479302" stroke-linecap="round" stroke-linejoin="round" points="287.051967 165.728773 215.291164 124.292799 287.051967 82.8647843"></polygon>
                <polygon id="Stroke-3" stroke="#0095CE" stroke-width="15.6479302" stroke-linecap="round" stroke-linejoin="round" points="287.051967 248.593557 215.291164 207.157583 287.051967 165.729569"></polygon>
                <polygon id="Stroke-4" stroke="#0095CE" stroke-width="15.6479302" stroke-linecap="round" stroke-linejoin="round" points="215.288776 124.296778 143.527973 165.732752 215.288776 207.160767"></polygon>
                <polygon id="Stroke-5" stroke="#0095CE" stroke-width="15.6479302" stroke-linecap="round" stroke-linejoin="round" points="215.289572 207.161563 287.050375 248.597537 215.289572 290.025551"></polygon>
                <polygon id="Stroke-6" stroke="#0095CE" stroke-width="15.6479302" stroke-linecap="round" stroke-linejoin="round" points="215.288776 207.161563 143.527973 248.597537 215.288776 290.025551"></polygon>
                <polygon id="Stroke-7" stroke="#0095CE" stroke-width="15.6479302" stroke-linecap="round" stroke-linejoin="round" points="215.289572 41.4319942 287.050375 82.867968 215.289572 124.295983"></polygon>
                <polygon id="Stroke-8" stroke="#0095CE" stroke-width="15.6479302" stroke-linecap="round" stroke-linejoin="round" points="71.7631907 124.296778 143.523994 165.732752 71.7631907 207.160767"></polygon>
                <polygon id="Stroke-9" stroke="#0095CE" stroke-width="15.6479302" stroke-linecap="round" stroke-linejoin="round" points="143.526381 165.728773 71.7655785 124.292799 143.526381 82.8647843"></polygon>
                <polygon id="Stroke-10" stroke="#0095CE" stroke-width="15.6479302" stroke-linecap="round" stroke-linejoin="round" points="143.526381 248.593557 71.7655785 207.157583 143.526381 165.729569"></polygon>
                <polygon id="Stroke-11" stroke="#0095CE" stroke-width="15.6479302" stroke-linecap="round" stroke-linejoin="round" points="71.7631907 207.161563 143.523994 248.597537 71.7631907 290.025551"></polygon>
                <polygon id="Stroke-12" stroke="#0095CE" stroke-width="15.6479302" stroke-linecap="round" stroke-linejoin="round" points="71.7631907 41.4319942 143.523994 82.867968 71.7631907 124.295983"></polygon>
                <polygon id="Stroke-13" stroke="#0095CE" stroke-width="15.6479302" stroke-linecap="round" stroke-linejoin="round" points="215.288776 41.4319942 143.527973 82.867968 215.288776 124.295983"></polygon>
                <polygon id="Stroke-14" stroke="#0095CE" stroke-width="15.6479302" stroke-linecap="round" stroke-linejoin="round" points="143.526381 165.728773 215.287184 124.292799 143.526381 82.8647843"></polygon>
                <polygon id="Stroke-15" stroke="#0095CE" stroke-width="15.6479302" stroke-linecap="round" stroke-linejoin="round" points="143.526381 82.8639884 71.7655785 41.4280145 143.526381 -1.42108547e-13"></polygon>
                <polygon id="Stroke-16" stroke="#0095CE" stroke-width="15.6479302" stroke-linecap="round" stroke-linejoin="round" points="143.526381 82.8639884 215.287184 41.4280145 143.526381 -1.42108547e-13"></polygon>
                <polygon id="Stroke-17" stroke="#0095CE" stroke-width="15.6479302" stroke-linecap="round" stroke-linejoin="round" points="143.526381 331.458341 71.7655785 290.022367 143.526381 248.594353"></polygon>
                <polygon id="Stroke-18" stroke="#0095CE" stroke-width="15.6479302" stroke-linecap="round" stroke-linejoin="round" points="215.289572 372.891131 143.528769 331.455158 215.289572 290.027143"></polygon>
                <polygon id="Stroke-19" stroke="#0095CE" stroke-width="15.6479302" stroke-linecap="round" stroke-linejoin="round" points="143.526381 331.458341 215.287184 290.022367 143.526381 248.594353"></polygon>
                <polygon id="Stroke-20" stroke="#0095CE" stroke-width="15.6479302" stroke-linecap="round" stroke-linejoin="round" points="143.526381 248.593557 215.287184 207.157583 143.526381 165.729569"></polygon>
                <polygon id="Stroke-21" stroke="#0095CE" stroke-width="15.6479302" stroke-linecap="round" stroke-linejoin="round" points="71.7631907 124.296778 0.00238778182 165.732752 71.7631907 207.160767"></polygon>
                <polygon id="Stroke-22" stroke="#0095CE" stroke-width="15.6479302" stroke-linecap="round" stroke-linejoin="round" points="71.7631907 207.161563 0.00238778182 248.597537 71.7631907 290.025551"></polygon>
                <polygon id="Stroke-23" stroke="#0095CE" stroke-width="15.6479302" stroke-linecap="round" stroke-linejoin="round" points="71.7631907 41.4319942 0.00238778182 82.867968 71.7631907 124.295983"></polygon>
                <polygon id="Stroke-24" stroke="#0095CE" stroke-width="15.6479302" stroke-linecap="round" stroke-linejoin="round" points="5.68434189e-14 165.728773 71.7608029 124.292799 5.68434189e-14 82.8647843"></polygon>
                <polygon id="Stroke-25" stroke="#0095CE" stroke-width="15.6479302" stroke-linecap="round" stroke-linejoin="round" points="5.68434189e-14 248.593557 71.7608029 207.157583 5.68434189e-14 165.729569"></polygon>
                <path d="M409.740176,139.467152 C407.272802,136.999778 404.351749,135.041797 401.05661,133.633005 C397.737593,132.216255 394.171839,131.49992 390.446899,131.49992 L387.899932,131.49992 C383.76111,131.49992 379.861066,132.351562 376.303272,134.046888 C374.671621,134.818937 373.135481,135.742213 371.710771,136.800796 L371.710771,99.5116032 L356.452845,99.5116032 L356.452845,222.275426 L371.710771,222.275426 L371.710771,158.195321 C371.710771,156.507955 372.021183,154.979775 372.649965,153.515269 C373.278748,152.050762 374.146309,150.76136 375.22081,149.686858 C376.311231,148.596438 377.568796,147.760714 379.049221,147.116013 C380.489849,146.49519 382.057826,146.184778 383.721314,146.184778 L390.446899,146.184778 C392.102428,146.184778 393.670405,146.49519 395.118992,147.116013 C396.599417,147.760714 397.849023,148.596438 398.947402,149.686858 C400.021904,150.76136 400.889465,152.050762 401.518248,153.515269 C402.14703,154.979775 402.449482,156.507955 402.449482,158.195321 L402.449482,222.275426 L417.707408,222.275426 L417.707408,158.768389 C417.707408,155.02753 416.991074,151.453817 415.574323,148.158678 C414.165532,144.863539 412.207551,141.942486 409.740176,139.467152 L409.740176,139.467152 Z" id="Fill-26" fill="#201F4B"></path>
                <polygon id="Fill-28" fill="#201F4B" points="462.513338 192.34856 442.145559 133.13953 426.545385 133.13953 454.681414 212.461642 438.802665 255.895394 454.084468 255.895394 498.425577 133.13953 482.809484 133.13953"></polygon>
                <path d="M612.488322,146.182391 L619.213908,146.182391 C620.869437,146.182391 622.437413,146.500762 623.886001,147.121585 C625.366426,147.758327 626.616031,148.60201 627.714411,149.684471 C628.788913,150.766932 629.656474,152.048375 630.285256,153.512881 C630.914039,154.977387 631.22445,156.505567 631.22445,158.192933 L631.22445,168.070391 L600.47778,168.070391 L600.47778,158.192933 C600.47778,156.505567 600.788191,154.977387 601.416974,153.512881 C602.045757,152.048375 602.913317,150.766932 603.987819,149.684471 C605.078239,148.60201 606.335805,147.758327 607.816229,147.121585 C609.256858,146.500762 610.832794,146.182391 612.488322,146.182391 M638.507185,139.464765 C636.03981,137.005349 633.118757,135.039409 629.823618,133.630618 C626.504602,132.213867 622.938847,131.497533 619.213908,131.497533 L612.488322,131.497533 C608.755423,131.497533 605.189669,132.213867 601.878612,133.630618 C598.583473,135.039409 595.66242,137.005349 593.195045,139.464765 C590.743589,141.916221 588.777649,144.837274 587.352939,148.15629 C585.944148,151.467348 585.219854,155.033102 585.219854,158.766001 L585.219854,196.64418 C585.219854,200.377079 585.944148,203.942833 587.352939,207.26185 C588.777649,210.572907 590.743589,213.49396 593.195045,215.937457 C595.654461,218.404831 598.575514,220.370772 601.878612,221.779563 C605.189669,223.196314 608.763383,223.920607 612.488322,223.920607 L619.213908,223.920607 C622.930888,223.920607 626.496642,223.196314 629.815659,221.779563 C633.118757,220.370772 636.03981,218.404831 638.507185,215.945416 C640.974559,213.478042 642.9405,210.549029 644.341332,207.25389 C645.758082,203.950792 646.482376,200.385038 646.482376,196.64418 L646.482376,193.341082 L631.22445,190.857789 L631.22445,197.225207 C631.22445,198.888695 630.906079,200.456671 630.277297,201.8973 C629.656474,203.361806 628.788913,204.643249 627.714411,205.717751 C626.623991,206.81613 625.374385,207.651854 623.886001,208.296555 C622.437413,208.917378 620.869437,209.22779 619.213908,209.22779 L612.488322,209.22779 C610.832794,209.22779 609.256858,208.917378 607.816229,208.296555 C606.327845,207.651854 605.078239,206.81613 603.987819,205.717751 C602.905358,204.643249 602.045757,203.361806 601.416974,201.889341 C600.796151,200.456671 600.47778,198.888695 600.47778,197.225207 L600.47778,181.115639 L646.482376,181.115639 L646.482376,158.766001 C646.482376,155.025143 645.758082,151.459389 644.341332,148.15629 C642.932541,144.861151 640.974559,141.940098 638.507185,139.464765" id="Fill-30" fill="#201F4B"></path>
                <path d="M551.604662,197.222023 C551.604662,198.885511 551.286291,200.453488 550.665467,201.902075 C550.036685,203.358622 549.177083,204.648024 548.094622,205.722526 C547.004202,206.812947 545.754596,207.65663 544.266212,208.293371 C542.825584,208.914195 541.257607,209.232566 539.594119,209.232566 L532.868534,209.232566 C531.213005,209.232566 529.645028,208.914195 528.19644,208.293371 C526.716016,207.65663 525.458451,206.812947 524.36803,205.722526 C523.293528,204.648024 522.425968,203.358622 521.797185,201.886157 C521.176362,200.453488 520.86595,198.885511 520.86595,197.222023 L520.86595,158.18975 C520.86595,156.502384 521.168403,154.974203 521.805144,153.509697 C522.425968,152.05315 523.293528,150.763748 524.36803,149.689246 C525.46641,148.598826 526.716016,147.755143 528.2044,147.118401 C529.645028,146.497578 531.213005,146.179207 532.868534,146.179207 L539.594119,146.179207 C541.257607,146.179207 542.825584,146.497578 544.274171,147.118401 C545.754596,147.755143 547.004202,148.598826 548.094622,149.689246 C549.169124,150.763748 550.036685,152.05315 550.665467,153.517656 C551.29425,154.974203 551.604662,156.502384 551.604662,158.18975 L551.604662,197.222023 Z M564.721543,148.153107 C563.320711,144.857968 561.354771,141.936915 558.895355,139.46954 C556.420022,137.002166 553.498968,135.044184 550.20383,133.635393 C546.892772,132.218643 543.319059,131.494349 539.594119,131.494349 L537.055111,131.494349 C532.534244,131.494349 528.30787,132.521095 524.495379,134.54275 C521.789226,135.96746 519.393485,137.766256 517.324074,139.9073 C514.530369,135.561537 512.54851,133.133959 505.608024,133.133959 L505.608024,255.897782 L520.86595,255.897782 L520.86595,218.616548 C522.29066,219.675131 523.81884,220.598407 525.450491,221.370456 C529.016246,223.057822 532.916289,223.917424 537.055111,223.917424 L539.594119,223.917424 C543.311099,223.917424 546.876854,223.201089 550.20383,221.776379 C553.506928,220.375547 556.427981,218.409607 558.895355,215.942232 C561.36273,213.474858 563.320711,210.553805 564.721543,207.258666 C566.146253,203.955568 566.862587,200.381854 566.862587,196.648955 L566.862587,158.762817 C566.862587,155.029918 566.146253,151.456205 564.721543,148.153107 L564.721543,148.153107 Z" id="Fill-32" fill="#201F4B"></path>
                <path d="M696.285933,131.495941 C691.773026,131.495941 687.538693,132.522687 683.726201,134.544342 C681.020048,135.969052 678.624307,137.767848 676.554896,139.908892 C673.761192,135.563129 671.779333,133.135551 664.838847,133.135551 L664.838847,222.279405 L680.096773,222.279405 L680.096773,159.910544 C680.096773,158.247056 680.407184,156.67908 681.035967,155.230492 C681.664749,153.773945 682.524351,152.484543 683.598853,151.410041 C684.697232,150.319621 685.946838,149.475938 687.435222,148.839196 C688.87585,148.218373 690.443827,147.907961 692.107315,147.907961 L704.778477,147.907961 L704.778477,131.495941 L696.285933,131.495941 Z" id="Fill-34" fill="#201F4B"></path>
                <path d="M774.823261,187.198911 C773.350796,184.166428 771.376896,181.603542 768.941359,179.573928 C766.585414,177.607987 763.879261,175.984296 760.902493,174.750608 C758.076951,173.564677 755.179776,172.514053 752.242804,171.590777 L743.782097,168.956258 C741.211252,168.176249 738.911023,167.189299 736.937123,166.035205 C735.114449,164.976621 733.626065,163.663341 732.535645,162.14312 C731.548695,160.758207 731.047261,158.879818 731.047261,156.547752 C731.047261,154.92406 731.349713,153.483432 731.946659,152.257704 C732.543604,151.008098 733.371369,149.925637 734.406074,149.050117 C735.488535,148.126841 736.722223,147.442344 738.186729,146.948869 C739.691031,146.439475 741.330641,146.184778 743.057804,146.184778 L748.963584,146.184778 C750.642991,146.184778 752.171171,146.487231 753.635677,147.116013 C755.108143,147.752755 756.397545,148.620316 757.464087,149.686858 C758.538589,150.753401 759.398191,152.042803 760.034932,153.507309 C760.655756,154.955897 760.966167,156.531833 760.966167,158.187362 L760.966167,163.774771 L776.232052,160.965148 L776.232052,158.768389 C776.232052,155.043449 775.515718,151.477695 774.098967,148.158678 C772.690176,144.863539 770.724236,141.934527 768.256861,139.467152 C765.789487,136.999778 762.868433,135.041797 759.573295,133.633005 C756.262237,132.216255 752.696483,131.491961 748.963584,131.491961 L743.057804,131.491961 C739.37266,131.491961 735.854662,132.120744 732.59136,133.338512 C729.328058,134.5722 726.414964,136.331199 723.939631,138.559795 C721.456337,140.80431 719.45856,143.526381 718.002013,146.638457 C716.537507,149.78237 715.789335,153.28445 715.789335,157.041226 C715.789335,161.418826 716.545466,165.167644 718.025891,168.184208 C719.498356,171.192813 721.480215,173.723862 723.907793,175.72164 C726.263738,177.663702 728.97785,179.247597 731.978496,180.441488 C734.811997,181.563746 737.717132,182.558655 740.6939,183.426216 C743.583116,184.269898 746.400698,185.113581 749.146647,185.957264 C751.693615,186.745232 753.985885,187.732182 755.959785,188.910154 C757.782458,189.992616 759.262883,191.345692 760.361263,192.945506 C761.364131,194.410012 761.873524,196.39983 761.873524,198.859245 C761.873524,200.4511 761.547194,201.859891 760.910452,203.053782 C760.233914,204.327266 759.334516,205.385849 758.172463,206.285247 C756.946735,207.224441 755.545903,207.948735 753.993844,208.450169 C752.370153,208.975481 750.722583,209.230178 748.963584,209.230178 L742.237999,209.230178 C740.566551,209.230178 738.9349,208.911807 737.398761,208.275065 C735.830784,207.630364 734.437911,206.746885 733.25198,205.656464 C732.081967,204.566044 731.134813,203.276642 730.434397,201.804176 C729.74194,200.363548 729.407651,198.859245 729.407651,197.219635 L729.407651,188.599743 L714.149725,191.083036 L714.149725,196.646568 C714.149725,200.411304 714.937693,204.008895 716.481792,207.327912 C718.002013,210.615091 720.063465,213.528185 722.610432,215.971682 C725.157399,218.431097 728.158045,220.389078 731.532777,221.78991 C734.931386,223.198701 738.528977,223.915036 742.237999,223.915036 L748.963584,223.915036 C752.640768,223.915036 756.206522,223.294213 759.565335,222.076444 C762.940067,220.858675 765.956631,219.107635 768.519517,216.894957 C771.130159,214.658402 773.223447,211.928371 774.743668,208.800377 C776.271849,205.640546 777.051857,202.130506 777.051857,198.36577 C777.051857,193.99613 776.303686,190.239353 774.823261,187.198911" id="Fill-36" fill="#0095CE"></path>
                <polygon id="Fill-38" fill="#0095CE" points="914.179779 133.135551 893.883634 192.344581 873.515855 133.135551 857.915681 133.135551 886.05171 212.457663 870.172961 255.899373 885.454764 255.899373 929.787913 133.135551"></polygon>
                <path d="M836.069865,197.222023 C836.069865,198.885511 835.751494,200.453488 835.130671,201.902075 C834.501888,203.358622 833.642287,204.648024 832.559825,205.722526 C831.469405,206.812947 830.219799,207.65663 828.731415,208.293371 C827.290787,208.914195 825.72281,209.232566 824.059322,209.232566 L817.333737,209.232566 C815.678208,209.232566 814.110231,208.914195 812.661644,208.293371 C811.181219,207.65663 809.923654,206.812947 808.833233,205.722526 C807.758732,204.648024 806.891171,203.358622 806.262388,201.886157 C805.641565,200.453488 805.331153,198.885511 805.331153,197.222023 L805.331153,193.696065 C805.331153,192.008699 805.633606,190.480519 806.270348,189.016013 C806.89913,187.543547 807.766691,186.246186 808.857111,185.131888 C809.947532,184.025549 811.189178,183.173907 812.661644,182.545124 C814.110231,181.924301 815.678208,181.60593 817.333737,181.60593 L836.069865,181.60593 L836.069865,197.222023 Z M849.186746,148.153107 C847.785914,144.857968 845.819974,141.936915 843.360559,139.46954 C840.885225,137.002166 837.964172,135.044184 834.669033,133.635393 C831.357975,132.218643 827.784262,131.494349 824.059322,131.494349 L818.153542,131.494349 C814.428602,131.494349 810.862848,132.218643 807.551791,133.635393 C804.264611,135.036225 801.343558,136.994206 798.860265,139.46954 C796.39289,141.936915 794.434909,144.857968 793.026118,148.153107 C791.609367,151.480083 790.885073,155.045837 790.885073,158.762817 L790.885073,161.787341 L806.150959,164.270634 L806.150959,158.18975 C806.150959,156.534221 806.46137,154.958285 807.082193,153.517656 C807.718935,152.045191 808.586496,150.755789 809.653039,149.689246 C810.719581,148.622704 812.016943,147.755143 813.481449,147.118401 C814.945955,146.489619 816.482095,146.179207 818.153542,146.179207 L824.059322,146.179207 C825.72281,146.179207 827.290787,146.497578 828.739375,147.118401 C830.219799,147.755143 831.469405,148.598826 832.559825,149.689246 C833.634327,150.763748 834.501888,152.05315 835.130671,153.517656 C835.759453,154.974203 836.069865,156.502384 836.069865,158.18975 L836.069865,168.552723 L817.333737,168.552723 C813.616756,168.552723 810.043043,169.277016 806.724026,170.693767 C803.428887,172.102558 800.507834,174.068499 798.048419,176.527914 C795.589004,178.97937 793.623063,181.908382 792.198353,185.21944 C790.789562,188.530497 790.073228,192.096251 790.073228,195.82915 L790.073228,196.648955 C790.073228,200.373895 790.789562,203.947608 792.198353,207.258666 C793.623063,210.577683 795.589004,213.490776 798.04046,215.942232 C800.507834,218.409607 803.428887,220.375547 806.724026,221.776379 C810.043043,223.201089 813.616756,223.917424 817.333737,223.917424 L819.880704,223.917424 C824.385652,223.917424 828.604067,222.890678 832.408599,220.869022 C835.082915,219.444312 837.470697,217.669395 839.532148,215.576106 C842.333812,219.921869 844.387305,222.277814 851.327791,222.277814 L851.327791,158.762817 C851.327791,155.029918 850.611456,151.456205 849.186746,148.153107 L849.186746,148.153107 Z" id="Fill-44" fill="#0095CE"></path>
            </g>
        </g>
    </g>
</svg>